<?xml version="1.0" standalone="no"?><!DOCTYPE svg PUBLIC "-//W3C//DTD SVG 1.1//EN"
        "http://www.w3.org/Graphics/SVG/1.1/DTD/svg11.dtd">
<svg t="1504425045871" class="icon" style="" viewBox="0 0 1024 1024" version="1.1" xmlns="http://www.w3.org/2000/svg"
     p-id="995" xmlns:xlink="http://www.w3.org/1999/xlink" width="200" height="200">
    <defs>
        <style type="text/css"></style>
    </defs>
    <path d="M593.92 796.16l-220.16-222.72-61.44-61.44 61.44-61.44 220.16-222.72 61.44 61.44-222.72 222.72 220.16 222.72-58.88 61.44zM512 84.48C276.48 84.48 84.48 276.48 84.48 512S276.48 939.52 512 939.52 939.52 747.52 939.52 512 747.52 84.48 512 84.48zM512 1024C230.4 1024 0 793.6 0 512S230.4 0 512 0s512 230.4 512 512-230.4 512-512 512z"
          fill="#5D5D5D" p-id="996"></path>
</svg>