<?xml version="1.0" standalone="no"?><!DOCTYPE svg PUBLIC "-//W3C//DTD SVG 1.1//EN"
        "http://www.w3.org/Graphics/SVG/1.1/DTD/svg11.dtd">
<svg t="1504189551404" class="icon" style="" viewBox="0 0 1024 1024"
     version="1.1" xmlns="http://www.w3.org/2000/svg"
     p-id="5599" xmlns:xlink="http://www.w3.org/1999/xlink" width="200" height="200">
    <defs>
        <style type="text/css"></style>
    </defs>
    <path d="M491.008 506.88c104.96 0 190.464-85.504 190.464-190.464 0-104.96-85.504-190.464-190.464-190.464-104.96 0-190.464 85.504-190.464 190.464C301.056 421.888 386.048 506.88 491.008 506.88z m0-337.92c81.408 0 147.968 66.56 147.968 147.968 0 81.408-66.56 147.968-147.968 147.968C409.6 464.896 343.04 398.336 343.04 316.928 343.04 235.008 409.6 168.96 491.008 168.96zM839.68 753.664l-22.528-88.064c-19.456-72.192-86.528-113.664-185.344-113.664H392.192c-98.304 0-165.888 41.472-185.344 113.664L184.32 753.152c-8.704 32.768-1.536 67.072 19.456 94.72 23.552 30.72 62.464 49.664 103.936 49.664h408.064c41.472 0 79.872-18.432 103.936-49.664 21.504-27.136 28.672-61.952 19.968-94.208z m-53.248 68.608c-15.872 20.48-41.984 32.768-70.144 32.768H308.224c-28.16 0-54.784-12.288-70.144-32.768-13.312-17.408-17.408-37.888-12.288-58.368l22.016-87.552c19.968-74.24 107.52-81.92 144.384-81.92h240.128c36.864 0 124.416 8.192 144.384 81.92l22.528 88.064c4.608 19.968 0.512 40.448-12.8 57.856z"
          p-id="5600"></path>
</svg>