<?xml version="1.0" standalone="no"?><!DOCTYPE svg PUBLIC "-//W3C//DTD SVG 1.1//EN" "http://www.w3.org/Graphics/SVG/1.1/DTD/svg11.dtd"><svg t="1504189565685" class="icon" style="" viewBox="0 0 1024 1024" version="1.1" xmlns="http://www.w3.org/2000/svg" p-id="6263" xmlns:xlink="http://www.w3.org/1999/xlink" width="200" height="200"><defs><style type="text/css"></style></defs><path d="M50.772 522.946c0-85.577-0.979-171.177 0.234-256.73 1.748-122.814 62.696-183.981 183.747-184.495 159.214-0.7 318.437-0.652 477.636 0.327 21.529 0.115 57.307-10.731 58.311 22.391 1.027 34.658-34.976 23.65-56.187 23.812-161.196 1.144-322.413 0.246-483.607 1.423-87.607 0.631-131.549 44.398-132.131 132.552-1.144 173.124-1.376 346.283-0.048 519.433 0.805 103.571 43.244 145.602 145.707 146.173 171.153 0.955 342.306 0.838 513.462 0.093 94.251-0.42 138.406-45.098 138.953-139.643 0.712-121.403-0.21-242.805 0.351-364.208 0.093-20.478-6.59-51.618 24.443-51.324 32.095 0.301 22.241 32.444 22.403 51.859 0.991 127.374 1.529 254.75 0.093 382.112-1.096 98.089-59.127 164.681-157.181 166.909-190.946 4.302-382.112 4.256-573.055-0.06-98.57-2.238-155.165-64.84-161.614-164.098-3.091-47.57-1.481-95.477-1.691-143.245-0.21-47.747-0.048-95.527-0.048-143.283 0.083 0.002 0.153 0.002 0.222 0.002z" p-id="6264"></path><path d="M984.503 85.173c-1.201 15.138-11.476 24.947-21.238 34.754-164.227 164.762-328.499 329.502-492.96 494.044-12.267 12.279-26.776 31.546-44.828 15.381-22.112-19.755-0.186-36.478 12.759-49.471 165.636-166.209 331.8-331.905 498.078-497.46 9.644-9.599 20.292-20.328 36.34-15.582 8.56 2.532 12.233 9.401 11.849 18.334z" p-id="6265"></path></svg>