<?xml version="1.0" standalone="no"?><!DOCTYPE svg PUBLIC "-//W3C//DTD SVG 1.1//EN"
        "http://www.w3.org/Graphics/SVG/1.1/DTD/svg11.dtd">
<svg t="1504416603613" class="icon" style="" viewBox="0 0 1635 1024" version="1.1" xmlns="http://www.w3.org/2000/svg"
     p-id="3700" xmlns:xlink="http://www.w3.org/1999/xlink" width="319.3359375" height="200">
    <defs>
        <style type="text/css"></style>
    </defs>
    <path d="M979.795291 360.160603 754.613824 585.340792l-99.956073-99.975228c-14.455665-14.455665-37.910365-14.455665-52.316228 0-14.501637 14.451834-14.501637 37.906534 0 52.337937l126.133342 126.158882c7.227833 7.227833 16.68148 10.864735 26.138959 10.864735 9.452371 0 18.955821-3.636902 26.183654-10.864735l251.360012-251.340857c14.455665-14.455665 14.455665-37.886102 0-52.360923C1017.705656 345.703661 994.250956 345.729201 979.795291 360.160603L979.795291 360.160603 979.795291 360.160603zM979.795291 360.160603"
          p-id="3701"></path>
    <path d="M817.206089 0C531.931451 0 305.203535 226.727916 305.203535 511.998723c0 285.274638 226.727916 512.002554 512.002554 512.002554 285.270807 0 511.998723-226.727916 511.998723-512.002554C1329.204812 226.727916 1102.476895 0 817.206089 0zM817.206089 958.159042c-241.362362 0-446.182028-204.814558-446.182028-446.183305 0-241.362362 197.496058-446.132225 446.182028-446.132225 248.682139 0 446.178197 204.769863 446.178197 446.132225C1263.384285 753.344484 1058.569728 958.159042 817.206089 958.159042z"
          p-id="3702"></path>
    <path d="M817.206089 58.547999" p-id="3703"></path>
</svg>