<?xml version="1.0" standalone="no"?><!DOCTYPE svg PUBLIC "-//W3C//DTD SVG 1.1//EN"
        "http://www.w3.org/Graphics/SVG/1.1/DTD/svg11.dtd">
<svg t="1504416520647" class="icon" style="" viewBox="0 0 1024 1024" version="1.1" xmlns="http://www.w3.org/2000/svg"
     p-id="2369" xmlns:xlink="http://www.w3.org/1999/xlink" width="200" height="200">
    <defs>
        <style type="text/css"></style>
    </defs>
    <path d="M767.826038 64.303538h-511.653099c-105.959264 0-191.869912 85.878926-191.869912 191.869912v511.6531c0 105.990986 85.910649 191.869912 191.869912 191.869912h511.653099c105.928564 0 191.869912-85.878926 191.869912-191.869912v-511.6531c0-105.990986-85.941348-191.869912-191.869912-191.869912z m0 255.82655l-319.783187 383.739824-127.913275-191.869912-191.869912 191.869912v-383.739824c0-105.990986 85.910649-191.869912 191.869912-191.869912h383.739825c105.928564 0 191.869912 85.878926 191.869912 191.869912h-127.913275z m-415.718143-63.956638c-52.994981 0-95.934956 42.970674-95.934956 95.934957s42.939975 95.934956 95.934956 95.934956 95.934956-42.970674 95.934956-95.934956-42.939975-95.934956-95.934956-95.934957z"
          fill="#7E7E7E" p-id="2370"></path>
</svg>