<?xml version="1.0" standalone="no"?><!DOCTYPE svg PUBLIC "-//W3C//DTD SVG 1.1//EN"
        "http://www.w3.org/Graphics/SVG/1.1/DTD/svg11.dtd">
<svg t="1504517166653" class="icon" style="" viewBox="0 0 1024 1024" version="1.1" xmlns="http://www.w3.org/2000/svg"
     p-id="2475" xmlns:xlink="http://www.w3.org/1999/xlink" width="200" height="200">
    <defs>
        <style type="text/css"></style>
    </defs>
    <path d="M512 56.295c-247.437 0-448.766 201.329-448.766 448.766 0 247.436 201.329 448.765 448.766 448.765 247.436 0 448.765-201.329 448.765-448.765 0-247.437-201.328-448.766-448.765-448.766zM512 906.305c-221.259 0-401.244-179.987-401.244-401.244 0-221.26 179.985-401.245 401.244-401.245s401.245 179.985 401.245 401.244c0 221.258-179.986 401.245-401.245 401.245zM752.806 320.268l-317.487 317.486-164.126-164.126c-9.59-9.59-25.14-9.59-34.731 0-9.59 9.591-9.59 25.14 0 34.731l181.491 181.492c9.59 9.59 25.14 9.59 34.731 0l334.852-334.852c9.591-9.591 9.591-25.14 0-34.731-9.59-9.591-25.14-9.591-34.731 0z"
          p-id="2476"></path>
</svg>