<?xml version="1.0" standalone="no"?><!DOCTYPE svg PUBLIC "-//W3C//DTD SVG 1.1//EN"
        "http://www.w3.org/Graphics/SVG/1.1/DTD/svg11.dtd">
<svg t="1504416588850" class="icon" style="" viewBox="0 0 1024 1024" version="1.1" xmlns="http://www.w3.org/2000/svg"
     p-id="3041" xmlns:xlink="http://www.w3.org/1999/xlink" width="200" height="200">
    <defs>
        <style type="text/css"></style>
    </defs>
    <path d="M866.125 417.555c0 47.435-37.827 71.153-71.154 71.153h-189.62c-43.544 0-71.154-32.962-71.154-76.87V227.934c0-43.787 27.61-71.153 71.154-71.153h189.62c43.544 0 71.154 27.245 71.154 71.153v189.62zM368.173 536.143H225.866c-43.422 0-71.031 32.962-71.031 76.749v184.025c0 43.787 27.61 71.154 71.153 71.154h189.62c33.327 0 71.154-27.367 71.154-71.154v-189.62c0-43.908-27.61-71.154-71.153-71.154h-47.436z m242.894 0c-43.908 0-76.87 27.61-76.87 71.154v189.62c0 49.382 29.313 71.154 76.749 71.154H794.97c43.909 0 71.154-27.61 71.154-71.154v-189.62c0-43.544-27.245-71.154-71.154-71.154H611.067z m-385.08-379.362c-43.907 0-71.152 27.61-71.152 71.153v189.62c0 43.787 27.366 71.154 71.153 71.154h189.62c43.909 0 71.154-27.61 71.154-71.153V227.934c0-43.422-27.245-71.153-71.153-71.153H225.988z"
          p-id="3042"></path>
</svg>